#!OML:ASF H:\Terrain\Patient Classification 1\Walking\liu\liu.ASF
:FULLY-SPECIFIED
:DEGREES
400
root 10.3365 17.4173 27.1156 5.07432 1.13156 2.15741
lowerback -4.48474 -2.37038 -4.49455
upperback 0.866624 -2.96908 1.8274
thorax 3.74216 -1.59647 4.18347
lowerneck -22.2179 -3.20822 -10.8542
upperneck 25.5139 -3.9004 10.806
head 12.6111 -1.37207 5.35528
rclavicle 2.95692e-014 -2.78299e-015
rhumerus -42.4849 12.7821 -89.2754
rradius 30.5445
rwrist -12.1704
rhand -32.9818 -21.5673
rfingers 7.12502
rthumb -6.19668 -51.4566
lclavicle 2.95692e-014 -2.78299e-015
lhumerus -17.6465 -15.5716 86.7895
lradius 28.0478
lwrist 2.20594
lhand -12.4597 -25.7193
lfingers 7.12502
lthumb 13.614 3.8155
rfemur -32.1388 -4.58228 20.9288
rtibia 52.3815
rfoot -14.4071 -10.2699
rtoes -16.7853
lfemur -7.67648 1.84699 -27.6036
ltibia 20.2887
lfoot -16.6149 2.84119
ltoes 3.33615
401
root 10.3476 17.4356 27.3099 4.71614 1.62844 3.09728
lowerback -4.77588 -2.55303 -5.35337
upperback 1.19109 -3.13073 1.4844
thorax 4.29237 -1.71292 4.27568
lowerneck -22.5705 -3.30354 -10.5875
upperneck 25.6643 -4.10702 10.7867
head 12.7653 -1.4321 5.27619
rclavicle 4.52235e-014 4.77083e-015
rhumerus -42.706 12.8149 -89.4534
rradius 29.7226
rwrist -11.029
rhand -28.7459 -25.0862
rfingers 7.12502
rthumb -2.1063 -55.0555
lclavicle 4.52235e-014 4.77083e-015
lhumerus -16.5632 -16.0109 86.465
lradius 28.2404
lwrist 2.17653
lhand -12.7892 -26.1096
lfingers 7.12502
lthumb 13.2964 3.44628
rfemur -31.8995 -5.0315 19.7665
rtibia 50.1662
rfoot -14.6801 -9.53389
rtoes -16.4323
lfemur -5.85998 1.81707 -28.6185
ltibia 19.0954
lfoot -16.6629 2.45688
ltoes 2.03433
402
root 10.3427 17.4601 27.4343 5.06165 1.64849 2.78622
lowerback -4.70397 -2.53365 -5.14253
upperback 0.884784 -3.13087 1.61419
thorax 3.92717 -1.69331 4.30252
lowerneck -22.3674 -3.42625 -10.7203
upperneck 25.7434 -4.25416 10.7593
head 12.7788 -1.52008 5.26451
rclavicle 3.47873e-015 4.77083e-015
rhumerus -43.2557 12.6349 -89.3275
rradius 29.708
rwrist -11.0963
rhand -27.825 -21.0932
rfingers 7.12502
rthumb -1.21687 -51.0694
lclavicle 3.47873e-015 4.77083e-015
lhumerus -16.0468 -16.4551 86.3855
lradius 28.6503
lwrist 2.68214
lhand -12.8179 -25.9943
lfingers 7.12502
lthumb 13.2687 3.56336
rfemur -32.6531 -3.72093 20.0548
rtibia 47.7474
rfoot -14.9591 -9.75184
rtoes -15.7448
lfemur -5.05923 1.34725 -28.2177
ltibia 17.5948
lfoot -16.2928 2.73637
ltoes 2.43146
403
root 10.3436 17.4585 27.5672 5.23079 1.78682 2.55135
lowerback -4.6165 -2.48124 -4.90822
upperback 0.725688 -3.08393 1.69681
thorax 3.69803 -1.6566 4.26817
lowerneck -22.0872 -3.52159 -11.0178
upperneck 25.7354 -4.33266 10.8321
head 12.7391 -1.58224 5.32948
rclavicle 2.1419e-014 6.36111e-015
rhumerus -43.7321 12.0816 -89.0292
rradius 29.705
rwrist -10.9459
rhand -8.56066 -35.0591
rfingers 7.12502
rthumb 17.3693 -64.303
lclavicle 2.1419e-014 6.36111e-015
lhumerus -15.417 -17.2856 86.3718
lradius 29.0632
lwrist 3.46828
lhand -12.9571 -25.8322
lfingers 7.12502
lthumb 13.1345 3.73411
rfemur -32.9476 -2.55052 20.1291
rtibia 45.2084
rfoot -15.4504 -9.69007
rtoes -14.6644
lfemur -3.93361 1.13477 -27.9229
ltibia 16.0309
lfoot -15.8299 2.77565
ltoes 2.90907
404
root 10.3467 17.4503 27.7247 5.26774 2.06595 2.72352
lowerback -4.72492 -2.55695 -5.10146
upperback 0.707243 -3.16706 1.65364
thorax 3.75803 -1.70253 4.32049
lowerneck -21.7294 -3.43067 -10.9547
upperneck 25.4876 -4.23725 10.8105
head 12.5512 -1.5427 5.3108
rclavicle 1.31695e-014 1.82882e-014
rhumerus -44.1383 11.866 -88.9473
rradius 29.6599
rwrist -10.9282
rhand -15.3241 -31.2662
rfingers 7.12502
rthumb 10.8521 -60.9658
lclavicle 1.31695e-014 1.82882e-014
lhumerus -14.7464 -17.6286 86.2116
lradius 29.3923
lwrist 3.67642
lhand -13.0847 -26.0477
lfingers 7.12502
lthumb 13.0115 3.52657
rfemur -32.9386 -1.89484 19.7554
rtibia 42.5656
rfoot -16.012 -9.23325
rtoes -14.2182
lfemur -2.7832 1.10236 -28.0678
ltibia 14.9737
lfoot -15.7001 2.57116
ltoes 2.56966
405
root 10.3494 17.4492 27.8803 5.49857 2.31536 2.92941
lowerback -5.02203 -2.76855 -5.38872
upperback 0.701748 -3.4153 1.61564
thorax 3.96417 -1.83677 4.40639
lowerneck -21.5968 -3.24568 -10.8346
upperneck 25.1704 -4.07307 11.0377
head 12.3781 -1.42913 5.39206
rclavicle 9.54166e-015 -1.03368e-014
rhumerus -44.2983 11.9876 -88.9634
rradius 29.5232
rwrist -10.5741
rhand -24.5777 -27.7188
rfingers 7.12502
rthumb 1.91942 -57.6899
lclavicle 9.54166e-015 -1.03368e-014
lhumerus -14.0181 -17.4531 85.8152
lradius 29.743
lwrist 3.51388
lhand -13.1942 -26.3491
lfingers 7.12502
lthumb 12.906 3.23182
rfemur -33.3153 -1.35735 19.3854
rtibia 39.9475
rfoot -16.1128 -9.31821
rtoes -16.2702
lfemur -1.75705 1.14037 -28.238
ltibia 13.6587
lfoot -15.519 2.26918
ltoes 3.99757
406
root 10.3514 17.4496 28.023 5.69964 2.33008 2.95402
lowerback -5.1335 -2.83757 -5.45534
upperback 0.697722 -3.4972 1.61354
thorax 4.03682 -1.88069 4.42865
lowerneck -22.1779 -3.4048 -10.9614
upperneck 25.4535 -4.29822 11.3002
head 12.6508 -1.49609 5.50179
rclavicle 3.37934e-015 1.63003e-014
rhumerus -44.2662 11.9861 -88.8548
rradius 29.2049
rwrist -9.8713
rhand -28.4554 -25.9453
rfingers 7.12502
rthumb -1.8257 -55.9172
lclavicle 3.37934e-015 1.63003e-014
lhumerus -13.2812 -17.8766 85.4612
lradius 30.2796
lwrist 4.00827
lhand -13.5674 -26.2777
lfingers 7.12502
lthumb 12.5462 3.32559
rfemur -33.7385 -0.392721 19.1507
rtibia 37.2407
rfoot -16.0166 -9.8755
rtoes -17.5329
lfemur -0.814957 1.17855 -28.2252
ltibia 12.4479
lfoot -15.3834 2.24998
ltoes 5.33045
407
root 10.3411 17.4448 28.1832 5.78077 2.20654 2.96425
lowerback -5.49458 -2.71322 -5.47959
upperback 0.828288 -3.30386 1.51773
thorax 4.34946 -1.79479 4.34282
lowerneck -22.3361 -3.60427 -10.9786
upperneck 25.3968 -4.57792 11.3614
head 12.7032 -1.60935 5.47956
rclavicle -2.60408e-014 1.47101e-014
rhumerus -44.1515 11.6632 -88.8407
rradius 28.603
rwrist -9.86205
rhand -29.2217 -24.1601
rfingers 7.12502
rthumb -2.56585 -54.1244
lclavicle -2.60408e-014 1.47101e-014
lhumerus -12.4504 -19.0171 85.1005
lradius 30.884
lwrist 4.95484
lhand -13.726 -25.8925
lfingers 7.12502
lthumb 12.3933 3.72009
rfemur -33.8629 1.05955 18.8486
rtibia 34.5248
rfoot -16.5263 -10.382
rtoes -17.4358
lfemur 0.22984 1.41907 -28.1668
ltibia 11.4392
lfoot -15.3682 2.37949
ltoes 3.85294
408
root 10.3092 17.439 28.3569 6.0567 1.99092 2.44692
lowerback -5.17892 -2.7677 -5.53916
upperback 0.00548221 -3.41628 1.90418
thorax 3.35433 -1.81015 4.80372
lowerneck -21.6475 -3.31438 -10.5121
upperneck 25.9869 -4.18656 10.5062
head 12.7079 -1.52188 5.14298
rclavicle 2.38542e-014 -2.78299e-015
rhumerus -45.7933 12.056 -89.0492
rradius 28.3733
rwrist -10.0742
rhand -30.586 -22.8939
rfingers 7.12502
rthumb -3.88335 -52.8383
lclavicle 2.38542e-014 -2.78299e-015
lhumerus -13.3889 -18.8109 85.4319
lradius 31.394
lwrist 5.12824
lhand -13.6899 -25.8119
lfingers 7.12502
lthumb 12.4281 3.79857
rfemur -34.0851 3.36652 18.944
rtibia 31.8261
rfoot -17.5923 -11.2051
rtoes -16.573
lfemur 0.993045 1.83598 -27.4369
ltibia 10.4839
lfoot -15.3604 2.36016
ltoes 3.3
409
root 10.3045 17.4399 28.5084 6.24591 2.20183 2.3793
lowerback -6.10346 -2.84689 -5.45243
upperback 0.562556 -3.46885 1.84156
thorax 4.45444 -1.87684 4.62926
lowerneck -22.3671 -3.35807 -10.1215
upperneck 25.8897 -4.22255 10.2151
head 12.8036 -1.51782 4.95235
rclavicle -3.00165e-014 5.96354e-015
rhumerus -44.8602 11.5379 -88.7771
rradius 27.9142
rwrist -9.55513
rhand -30.5622 -23.2628
rfingers 7.12502
rthumb -3.86037 -53.2075
lclavicle -3.00165e-014 5.96354e-015
lhumerus -11.8119 -18.8752 84.8154
lradius 31.6747
lwrist 5.28262
lhand -13.7583 -26.1276
lfingers 7.12502
lthumb 12.3622 3.48689
rfemur -34.1347 4.5194 18.5772
rtibia 29.2483
rfoot -18.2293 -11.4474
rtoes -16.1306
lfemur 1.7327 1.60919 -27.2592
ltibia 9.72856
lfoot -15.3245 2.28331
ltoes 4.58811
410
root 10.2953 17.454 28.6678 6.50138 2.31834 2.56962
lowerback -8.07698 -2.86958 -5.69444
upperback 1.87781 -3.34429 1.68878
thorax 6.95995 -1.91686 4.50971
lowerneck -23.6316 -3.6736 -10.3575
upperneck 25.2395 -4.57926 10.7617
head 12.8687 -1.59137 5.13079
rclavicle -2.42517e-014 -8.34896e-015
rhumerus -42.4863 10.8627 -88.3
rradius 27.0894
rwrist -9.08328
rhand -28.8653 -24.4298
rfingers 7.12502
rthumb -2.22163 -54.398
lclavicle -2.42517e-014 -8.34896e-015
lhumerus -8.94393 -19.3832 83.8089
lradius 32.0151
lwrist 5.88706
lhand -13.955 -26.4499
lfingers 7.12502
lthumb 12.1725 3.17596
rfemur -34.3377 5.92533 17.8249
rtibia 26.8501
rfoot -18.6658 -12.2235
rtoes -18.5726
lfemur 2.36782 1.43819 -27.3614
ltibia 9.05004
lfoot -15.3406 2.09248
ltoes 4.05955
411
root 10.2761 17.464 28.8361 6.78236 2.21632 2.34483
lowerback -7.08223 -2.94254 -5.90493
upperback 0.656374 -3.51367 2.02753
thorax 5.15406 -1.93502 5.03123
lowerneck -22.5883 -3.31577 -10.7874
upperneck 26.0354 -4.16809 11.08
head 12.9402 -1.44406 5.43929
rclavicle -1.67973e-014 -3.97569e-016
rhumerus -44.6918 10.9948 -88.2567
rradius 27.0105
rwrist -8.69662
rhand -31.8006 -21.1872
rfingers 7.12502
rthumb -5.05619 -51.1069
lclavicle -1.67973e-014 -3.97569e-016
lhumerus -10.855 -19.2968 84.5576
lradius 32.8817
lwrist 6.35593
lhand -14.2276 -26.702
lfingers 7.12502
lthumb 11.9096 2.93922
rfemur -34.9415 8.42537 17.0829
rtibia 24.9938
rfoot -19.7265 -13.529
rtoes -20.1328
lfemur 3.47869 1.52027 -26.9924
ltibia 7.36021
lfoot -14.9048 1.96771
ltoes 2.9716
412
root 10.2934 17.4645 28.9841 6.57384 2.53643 2.00495
lowerback -8.11559 -2.94579 -5.08787
upperback 1.8252 -3.5156 1.7928
thorax 6.91297 -1.97588 4.25091
lowerneck -23.5546 -3.7817 -10.9538
upperneck 25.0701 -4.75117 11.5748
head 12.8512 -1.62126 5.526
rclavicle 3.8763e-014 -1.03368e-014
rhumerus -42.8574 9.94985 -87.9095
rradius 26.6435
rwrist -8.37346
rhand -30.9574 -21.8239
rfingers 7.12502
rthumb -4.24199 -51.7614
lclavicle 3.8763e-014 -1.03368e-014
lhumerus -8.46061 -20.1297 83.3051
lradius 33.3467
lwrist 7.30648
lhand -14.4207 -26.7227
lfingers 7.12502
lthumb 11.7235 2.92921
rfemur -35.0754 10.0312 16.5484
rtibia 23.6824
rfoot -20.8743 -13.9425
rtoes -19.4654
lfemur 6.08854 1.25782 -26.5788
ltibia 3.86357
lfoot -13.5784 2.12739
ltoes 2.97811
413
root 10.3067 17.4554 29.1417 6.63832 2.85041 2.40984
lowerback -6.80773 -3.08092 -5.22316
upperback 0.6576 -3.75228 1.65235
thorax 4.95833 -2.0225 4.23293
lowerneck -22.2211 -3.52805 -10.9688
upperneck 25.3559 -4.5509 11.5883
head 12.6659 -1.57022 5.57143
rclavicle -1.96797e-014 6.36111e-015
rhumerus -44.9659 9.98428 -88.1035
rradius 26.7151
rwrist -8.54203
rhand -30.6656 -23.2652
rfingers 7.12502
rthumb -3.96019 -53.2082
lclavicle -1.96797e-014 6.36111e-015
lhumerus -10.2409 -20.2056 83.8212
lradius 33.889
lwrist 7.39768
lhand -14.391 -26.7486
lfingers 7.12502
lthumb 11.7521 2.90172
rfemur -35.7142 11.8704 14.9786
rtibia 22.9448
rfoot -21.769 -14.7052
rtoes -19.4269
lfemur 8.64332 0.894065 -27.0177
ltibia 9.54166e-015
lfoot -12.0425 2.3846
ltoes 2.616
